<?xml version="1.0" standalone="no"?>
<!DOCTYPE svg PUBLIC "-//W3C//DTD SVG 1.1//EN" "http://www.w3.org/Graphics/SVG/1.1/DTD/svg11.dtd">
<svg xmlns="http://www.w3.org/2000/svg" xmlns:xlink="http://www.w3.org/1999/xlink" id="visual" viewBox="0 0 900 360" width="900" height="360" version="1.1"><rect x="0" y="0" width="900" height="360" fill="#001220"/><defs><linearGradient id="grad1_0" x1="60%" y1="100%" x2="100%" y2="0%"><stop offset="0%" stop-color="#001220" stop-opacity="1"/><stop offset="100%" stop-color="#001220" stop-opacity="1"/></linearGradient></defs><defs><linearGradient id="grad2_0" x1="0%" y1="100%" x2="40%" y2="0%"><stop offset="0%" stop-color="#001220" stop-opacity="1"/><stop offset="100%" stop-color="#001220" stop-opacity="1"/></linearGradient></defs><g transform="translate(900, 360)"><path d="M-213 0C-218.3 -20.7 -223.7 -41.4 -216.4 -58C-209.1 -74.5 -189.1 -87 -178.4 -103C-167.7 -119 -166.2 -138.6 -158.4 -158.4C-150.6 -178.2 -136.6 -198.1 -117 -202.6C-97.4 -207.2 -72.2 -196.2 -51.8 -193.2C-31.3 -190.2 -15.7 -195.1 0 -200L0 0Z" fill="#FBAE3C"/></g><g transform="translate(0, 0)"><path d="M224 0C211.6 16.4 199.3 32.8 198 53.1C196.7 73.3 206.6 97.4 200.9 116C195.3 134.6 174.1 147.7 154.1 154.1C134.2 160.6 115.4 160.5 101 174.9C86.6 189.4 76.7 218.4 60.6 226C44.5 233.6 22.2 219.8 0 206L0 0Z" fill="#FBAE3C"/></g></svg>